{"title":"Dragon Ball Z: Resurrection F 1080P WEB-DL ( 2015 UNRATED )","uid":12544246,"size":4025298603,"categoryP":"video","categoryS":"hd___movies","magnet":"?xt=urn:btih:4ac2353715d878f36b323b9e3a4bd882a5352c02&amp;dn=Dragon+Ball+Z%3A+Resurrection+F+1080P+WEB-DL+%28+2015+UNRATED+%29&amp;tr=udp%3A%2F%2Ftracker.leechers-paradise.org%3A6969&amp;tr=udp%3A%2F%2Fzer0day.ch%3A1337&amp;tr=udp%3A%2F%2Fopen.demonii.com%3A1337&amp;tr=udp%3A%2F%2Ftracker.coppersurfer.tk%3A6969&amp;tr=udp%3A%2F%2Fexodus.desync.com%3A6969","seeders":0,"leechers":2,"uploader":"jmanwf","files":2,"time":1444443422,"description":"\nPlot Summary\r\n\r\nEven the complete obliteration of his physical form can’t stop the galaxy’s most evil overlord. After years in spiritual purgatory, Frieza has been resurrected and plans to take his revenge on the Z-Fighters of Earth.\r\n\r\n\r\n\r\nVideo\r\nID                                       : 2\r\nFormat                                   : AVC\r\nFormat/Info                              : Advanced Video Codec\r\nFormat profile                           :   \r\nFormat settings, CABAC                   : Yes\r\nFormat settings, ReFrames                : 4 frames\r\nCodec ID                                 : avc1\r\nCodec ID/Info                            : Advanced Video Coding\r\nDuration                                 : 1h 34mn\r\nBit rate                                 : 5 191 Kbps\r\nWidth                                    : 1 912 pixels\r\nHeight                                   : 1 072 pixels\r\nDisplay aspect ratio                     : 16:9\r\nFrame rate mode                          : Constant\r\nFrame rate                               : 23.976 fps\r\nColor space                              : YUV\r\nChroma subsampling                       : 4:2:0\r\nBit depth                                : 8 bits\r\nScan type                                : Progressive\r\nBits/(Pixel*Frame)                       : 0.106\r\nStream size                              : 3.41 GiB (91%)\r\nLanguage                                 : English\r\nEncoded date                             : UTC 2015-10-09 05:52:28\r\nTagged date                              : UTC 2015-10-09 06:01:36\r\nColor range                              : Limited\r\nColor primaries                          : BT.709\r\nTransfer characteristics                 : BT.709\r\nMatrix coefficients                      : BT.709\r\n\r\nAudio #1\r\nID                                       : 1\r\nFormat                                   : AAC\r\nFormat/Info                              : Advanced Audio Codec\r\nFormat profile                           : LC\r\nCodec ID                                 : 40\r\nDuration                                 : 1h 34mn\r\nBit rate mode                            : Variable\r\nBit rate                                 : 124 Kbps\r\nMaximum bit rate                         : 212 Kbps\r\nChannel(s)                               : 2 channels\r\nChannel positions                        : Front: L R\r\nSampling rate                            : 48.0 KHz\r\nCompression mode                         : Lossy\r\nStream size                              : 83.7 MiB (2%)\r\nLanguage                                 : English\r\nEncoded date                             : UTC 2015-10-09 05:52:27\r\nTagged date                              : UTC 2015-10-09 06:01:36\r\n\r\nAudio #2\r\nID                                       : 3\r\nFormat                                   : AC-3\r\nFormat/Info                              : Audio Coding 3\r\nMode extension                           : CM (complete main)\r\nFormat settings, Endianness              : Big\r\nCodec ID                                 : ac-3\r\nDuration                                 : 1h 34mn\r\nBit rate mode                            : Constant\r\nBit rate                                 : 384 Kbps\r\nChannel(s)                               : 6 channels\r\nChannel positions                        : Front: L C R, Side: L R, LFE\r\nSampling rate                            : 48.0 KHz\r\nBit depth                                : 16 bits\r\nCompression mode                         : Lossy\r\nStream size                              : 258 MiB (7%)\r\nLanguage                                 : English\r\nEncoded date                             : UTC 2015-10-09 05:52:28\r\nTagged date                              : UTC 2015-10-09 06:01:36\r\n\r\nText\r\nID                                       : 4-CC1\r\nFormat                                   : EIA-608\r\nMuxing mode                              : Final Cut\r\nCodec ID                                 : c608\r\nDuration                                 : 1h 33mn\r\nBit rate mode                            : Constant\r\nStream size                              : 0.00 Byte (0%)\r\nLanguage                                 : English\r\nEncoded date                             : UTC 2015-10-09 05:52:28\r\nTagged date                              : UTC 2015-10-09 05:52:59\r\n\r\n\r\n\r\n\r\nSOURCE: https://itunes.apple.com/us/movie/dragon-ball-z-resurrection-f/id1031707335","torrent":{"xt":"urn:btih:4ac2353715d878f36b323b9e3a4bd882a5352c02","amp;dn":"Dragon+Ball+Z%3A+Resurrection+F+1080P+WEB-DL+%28+2015+UNRATED+%29","amp;tr":["udp%3A%2F%2Ftracker.leechers-paradise.org%3A6969","udp%3A%2F%2Fzer0day.ch%3A1337","udp%3A%2F%2Fopen.demonii.com%3A1337","udp%3A%2F%2Ftracker.coppersurfer.tk%3A6969","udp%3A%2F%2Fexodus.desync.com%3A6969"],"infoHash":"4ac2353715d878f36b323b9e3a4bd882a5352c02","infoHashBuffer":{"type":"Buffer","data":[74,194,53,55,21,216,120,243,107,50,59,158,58,75,216,130,165,53,44,2]},"announce":[],"urlList":[]}}